<svg xmlns="http://www.w3.org/2000/svg" version="1.1" viewBox="-5.0 -10.0 110.0 135.0">
 <path d="m50 5.7812c5.3711 0 10.238 2.1797 13.754 5.6953 3.5195 3.5195 5.6953 8.3828 5.6953 13.754 0 5.3711-2.1797 10.234-5.6953 13.754-3.5195 3.5195-8.3828 5.6992-13.754 5.6992s-10.238-2.1797-13.754-5.6992c-3.5195-3.5195-5.6953-8.3828-5.6953-13.754 0-5.3711 2.1797-10.238 5.6953-13.754 3.5195-3.5195 8.3828-5.6953 13.754-5.6953zm16.074 3.375c-4.1133-4.1133-9.7969-6.6562-16.074-6.6562-6.2812 0-11.965 2.543-16.074 6.6562-4.1133 4.1133-6.6602 9.7969-6.6602 16.078 0 6.2773 2.5469 11.961 6.6602 16.074 4.1133 4.1133 9.7969 6.6602 16.074 6.6602s11.961-2.5469 16.074-6.6602c4.1133-4.1133 6.6602-9.7969 6.6602-16.074 0-6.2812-2.543-11.965-6.6562-16.074zm19.031 52.023c-3.8281-6.0625-9.332-11.066-16.027-14.285l-0.41406-0.19922c-0.57812-0.27734-1.1797-0.39062-1.7656-0.34766-0.58203 0.042969-1.1602 0.24609-1.6914 0.60156l-0.38281 0.25781c-4.4688 3.0234-9.6523 4.5352-14.828 4.5352-5.1758 0-10.359-1.5117-14.828-4.5352l-0.38281-0.25781c-0.53125-0.35938-1.1094-0.5625-1.6914-0.60156-0.58594-0.042968-1.1914 0.070313-1.7656 0.34766l-0.41406 0.19922c-6.6914 3.2188-12.199 8.2188-16.027 14.285-3.8047 6.0312-5.9531 13.117-5.9531 20.539 0 4.3438 1.7734 8.2891 4.6328 11.148 2.8555 2.8555 6.8047 4.6289 11.145 4.6289h50.562c4.3203 0 8.2461-1.75 11.121-4.6016 2.8828-2.8867 4.6562-6.832 4.6562-11.176 0-7.4258-2.1445-14.512-5.9531-20.539zm-17.387-11.285c6.0039 2.9023 11.078 7.457 14.617 13.062 3.4375 5.4492 5.4375 11.887 5.4375 18.766 0 3.4375-1.4062 6.5586-3.668 8.8242-2.2617 2.2695-5.3867 3.6719-8.8281 3.6719h-50.562c-3.4375 0-6.5625-1.4062-8.8555-3.7031-2.2578-2.2891-3.6406-5.3906-3.6406-8.793 0-6.8789 1.9961-13.316 5.4375-18.766 3.5547-5.625 8.6523-10.195 14.688-13.098 0.32812-0.15625 0.69922-0.11719 0.98047 0.070313 2.3594 1.5938 4.9609 2.8594 7.7266 3.7266 2.6875 0.84375 5.5352 1.3203 8.4805 1.3672h0.92969c2.9414-0.042969 5.7891-0.51953 8.4805-1.3672 2.7656-0.86719 5.3672-2.1328 7.7227-3.7305 0.32422-0.21875 0.73438-0.21875 1.0508-0.035156zm12.941 14.117c-3.2578-5.1562-7.8867-9.3711-13.363-12.117-2.3828 1.5508-4.9961 2.7891-7.7656 3.6602-2.8555 0.89453-5.8906 1.4023-9.0469 1.4492h-0.97656c-3.1523-0.046875-6.1914-0.55469-9.0469-1.4492-2.7734-0.87109-5.3828-2.1094-7.7656-3.6602-5.4766 2.7461-10.105 6.9609-13.363 12.117-3.2422 5.1367-5.125 11.211-5.125 17.711 0 2.8633 1.1602 5.4727 3.0586 7.3984 1.9297 1.9297 4.5586 3.1133 7.4453 3.1133h50.562c2.8906 0 5.5156-1.1836 7.4219-3.0859 1.9023-1.9023 3.0859-4.5312 3.0859-7.4219 0-6.5-1.8828-12.574-5.125-17.711zm-18.316-51.129c-3.1602-3.1602-7.5273-5.1133-12.348-5.1133-4.8242 0-9.1875 1.9531-12.348 5.1133-3.1602 3.1602-5.1172 7.5273-5.1172 12.352s1.957 9.1875 5.1172 12.348c3.1602 3.1602 7.5273 5.1133 12.348 5.1133 4.8242 0 9.1875-1.9531 12.348-5.1133 3.1602-3.1602 5.1172-7.5273 5.1172-12.348 0-4.8242-1.957-9.1914-5.1172-12.352z"/>
<text x="0.0" y="117.5" font-size="5.0" font-weight="bold" font-family="Arbeit Regular, Helvetica, Arial-Unicode, Arial, Sans-serif" fill="#000000">Created by Imam Kurniadi</text><text x="0.0" y="122.5" font-size="5.0" font-weight="bold" font-family="Arbeit Regular, Helvetica, Arial-Unicode, Arial, Sans-serif" fill="#000000">from Noun Project</text></svg>